{"accessors":[{"bufferView":0,"byteOffset":0,"componentType":5126,"count":36,"max":[80.0,100.0,4.2896828136000239e-16],"min":[0.0,0.0,-4.2896828136000234e-16],"type":"VEC3"},{"bufferView":0,"byteOffset":432,"componentType":5126,"count":4,"max":[0.0,100.0,0.0],"min":[0.0,0.0,-80.0],"type":"VEC3"},{"bufferView":0,"byteOffset":480,"componentType":5126,"count":8,"max":[80.0,0.0,0.0],"min":[0.0,0.0,-80.0],"type":"VEC3"},{"bufferView":0,"byteOffset":576,"componentType":5126,"count":46,"max":[80.0,100.0,0.0],"min":[0.0,100.0,-80.0],"type":"VEC3"},{"bufferView":0,"byteOffset":1128,"componentType":5126,"count":4,"max":[80.0,100.0,0.0],"min":[80.0,0.0,-80.0],"type":"VEC3"},{"bufferView":0,"byteOffset":1176,"componentType":5126,"count":4,"max":[65.5,12.0,0.0],"min":[14.500000000000002,12.0,-2.0],"type":"VEC3"},{"bufferView":0,"byteOffset":1224,"componentType":5126,"count":16,"max":[14.500000000000002,14.0,4.2896828136000239e-16],"min":[12.500000000000002,12.0,-2.0],"type":"VEC3"},{"bufferView":0,"byteOffset":1416,"componentType":5126,"count":4,"max":[12.500000000000002,86.00000000000002,0.0],"min":[12.500000000000002,14.0,-2.0],"type":"VEC3"},{"bufferView":0,"byteOffset":1464,"componentType":5126,"count":16,"max":[14.5,87.99999999999952,0.0],"min":[12.500000000000002,86.00000000000002,-2.0000000000000006],"type":"VEC3"},{"bufferView":0,"byteOffset":1656,"componentType":5126,"count":4,"max":[65.50000000004943,87.99999999999952,0.0],"min":[14.5,87.99999999999902,-2.0],"type":"VEC3"},{"bufferView":0,"byteOffset":1704,"componentType":5126,"count":16,"max":[67.499999999999,87.99999999999902,0.0],"min":[65.50000000004943,86.00000000004944,-2.0000000000000006],"type":"VEC3"},{"bufferView":0,"byteOffset":1896,"componentType":5126,"count":4,"max":[67.4999999999995,86.00000000004944,0.0],"min":[67.499999999999,14.0,-2.0],"type":"VEC3"},{"bufferView":0,"byteOffset":1944,"componentType":5126,"count":16,"max":[67.4999999999995,14.0,4.2896828136000239e-16],"min":[65.5,12.0,-2.0],"type":"VEC3"},{"bufferView":0,"byteOffset":2136,"componentType":5126,"count":36,"max":[80.0,100.0,-80.0],"min":[0.0,0.0,-80.0],"type":"VEC3"},{"bufferView":0,"byteOffset":2568,"componentType":5126,"count":36,"max":[78.0,98.0,-1.9999999999999996],"min":[2.0,0.0,-2.0000000000000006],"type":"VEC3"},{"bufferView":0,"byteOffset":3000,"componentType":5126,"count":4,"max":[2.0,98.0,-2.0],"min":[2.0,0.0,-78.0],"type":"VEC3"},{"bufferView":0,"byteOffset":3048,"componentType":5126,"count":36,"max":[78.0,98.0,-78.0],"min":[2.0,0.0,-78.0],"type":"VEC3"},{"bufferView":0,"byteOffset":3480,"componentType":5126,"count":4,"max":[78.0,98.0,-2.0],"min":[78.0,0.0,-78.0],"type":"VEC3"},{"bufferView":0,"byteOffset":3528,"componentType":5126,"count":4,"max":[44.000000000000209,106.0,-12.792464279174446],"min":[44.0000000000002,100.0,-67.20753572082555],"type":"VEC3"},{"bufferView":0,"byteOffset":3576,"componentType":5126,"count":38,"max":[67.5,106.0,-12.792464279174446],"min":[44.0000000000002,100.0,-67.20753572082555],"type":"VEC3"},{"bufferView":0,"byteOffset":4032,"componentType":5126,"count":38,"max":[36.0,106.0,-12.792464279174422],"min":[12.5,100.0,-67.20753572082558],"type":"VEC3"},{"bufferView":0,"byteOffset":4488,"componentType":5126,"count":4,"max":[36.0,106.0,-12.792464279174422],"min":[35.99999999999999,100.0,-67.20753572082558],"type":"VEC3"},{"bufferView":0,"byteOffset":4536,"componentType":5126,"count":4,"max":[38.0,100.0,-24.0],"min":[38.0,98.0,-56.0],"type":"VEC3"},{"bufferView":0,"byteOffset":4584,"componentType":5126,"count":4,"max":[42.0,100.0,-24.0],"min":[38.0,98.0,-24.0],"type":"VEC3"},{"bufferView":0,"byteOffset":4632,"componentType":5126,"count":4,"max":[42.0,100.0,-24.0],"min":[42.0,98.0,-56.0],"type":"VEC3"},{"bufferView":0,"byteOffset":4680,"componentType":5126,"count":4,"max":[42.0,100.0,-56.0],"min":[38.0,98.0,-56.0],"type":"VEC3"},{"bufferView":0,"byteOffset":4728,"componentType":5126,"count":4,"max":[65.5,11.999999999999983,-78.0],"min":[14.500000000000002,11.999999999999983,-80.0],"type":"VEC3"},{"bufferView":0,"byteOffset":4776,"componentType":5126,"count":16,"max":[67.4999999999995,13.999999999999983,-78.0],"min":[65.5,11.999999999999983,-80.0],"type":"VEC3"},{"bufferView":0,"byteOffset":4968,"componentType":5126,"count":4,"max":[67.4999999999995,86.00000000004943,-78.0],"min":[67.499999999999,13.999999999999983,-80.0],"type":"VEC3"},{"bufferView":0,"byteOffset":5016,"componentType":5126,"count":16,"max":[67.499999999999,87.999999999999,-78.0],"min":[65.50000000004943,86.00000000004943,-80.0],"type":"VEC3"},{"bufferView":0,"byteOffset":5208,"componentType":5126,"count":4,"max":[65.50000000004943,87.9999999999995,-78.0],"min":[14.5,87.999999999999,-80.0],"type":"VEC3"},{"bufferView":0,"byteOffset":5256,"componentType":5126,"count":16,"max":[14.5,87.9999999999995,-78.0],"min":[12.500000000000002,86.0,-80.0],"type":"VEC3"},{"bufferView":0,"byteOffset":5448,"componentType":5126,"count":4,"max":[12.500000000000002,86.0,-78.0],"min":[12.500000000000002,13.999999999999983,-80.0],"type":"VEC3"},{"bufferView":0,"byteOffset":5496,"componentType":5126,"count":16,"max":[14.500000000000002,13.999999999999983,-78.0],"min":[12.500000000000002,11.999999999999983,-80.0],"type":"VEC3"},{"bufferView":0,"byteOffset":5688,"componentType":5126,"count":44,"max":[78.0,98.0,-2.0],"min":[2.0,98.0,-78.0],"type":"VEC3"},{"bufferView":0,"byteOffset":6216,"componentType":5126,"count":19,"max":[67.5,106.0,-12.792464279174446],"min":[44.0000000000002,106.0,-67.20753572082555],"type":"VEC3"},{"bufferView":0,"byteOffset":6444,"componentType":5126,"count":19,"max":[36.0,106.0,-12.792464279174422],"min":[12.5,106.0,-67.20753572082558],"type":"VEC3"},{"bufferView":0,"byteOffset":6672,"componentType":5126,"count":4,"max":[34.0,102.0,-14.188181001719386],"min":[33.99999999999999,98.0,-65.81181899828062],"type":"VEC3"},{"bufferView":0,"byteOffset":6720,"componentType":5126,"count":36,"max":[34.0,102.0,-14.188181001719386],"min":[13.582576544228264,98.0,-65.81181899828062],"type":"VEC3"},{"bufferView":0,"byteOffset":7152,"componentType":5126,"count":36,"max":[66.41742345577174,102.0,-14.188181001719386],"min":[45.999999999999989,98.0,-65.81181899828062],"type":"VEC3"},{"bufferView":0,"byteOffset":7584,"componentType":5126,"count":4,"max":[45.999999999999989,102.0,-14.188181001719386],"min":[45.999999999999989,98.0,-65.81181899828062],"type":"VEC3"},{"bufferView":0,"byteOffset":7632,"componentType":5126,"count":18,"max":[34.0,102.0,-14.188181001719386],"min":[13.582576544228264,102.0,-65.81181899828062],"type":"VEC3"},{"bufferView":0,"byteOffset":7848,"componentType":5126,"count":18,"max":[66.41742345577174,102.0,-14.188181001719386],"min":[45.999999999999989,102.0,-65.81181899828062],"type":"VEC3"},{"bufferView":1,"byteOffset":0,"componentType":5126,"count":36,"type":"VEC3"},{"bufferView":1,"byteOffset":432,"componentType":5126,"count":4,"type":"VEC3"},{"bufferView":1,"byteOffset":480,"componentType":5126,"count":8,"type":"VEC3"},{"bufferView":1,"byteOffset":576,"componentType":5126,"count":46,"type":"VEC3"},{"bufferView":1,"byteOffset":1128,"componentType":5126,"count":4,"type":"VEC3"},{"bufferView":1,"byteOffset":1176,"componentType":5126,"count":4,"type":"VEC3"},{"bufferView":1,"byteOffset":1224,"componentType":5126,"count":16,"type":"VEC3"},{"bufferView":1,"byteOffset":1416,"componentType":5126,"count":4,"type":"VEC3"},{"bufferView":1,"byteOffset":1464,"componentType":5126,"count":16,"type":"VEC3"},{"bufferView":1,"byteOffset":1656,"componentType":5126,"count":4,"type":"VEC3"},{"bufferView":1,"byteOffset":1704,"componentType":5126,"count":16,"type":"VEC3"},{"bufferView":1,"byteOffset":1896,"componentType":5126,"count":4,"type":"VEC3"},{"bufferView":1,"byteOffset":1944,"componentType":5126,"count":16,"type":"VEC3"},{"bufferView":1,"byteOffset":2136,"componentType":5126,"count":36,"type":"VEC3"},{"bufferView":1,"byteOffset":2568,"componentType":5126,"count":36,"type":"VEC3"},{"bufferView":1,"byteOffset":3000,"componentType":5126,"count":4,"type":"VEC3"},{"bufferView":1,"byteOffset":3048,"componentType":5126,"count":36,"type":"VEC3"},{"bufferView":1,"byteOffset":3480,"componentType":5126,"count":4,"type":"VEC3"},{"bufferView":1,"byteOffset":3528,"componentType":5126,"count":4,"type":"VEC3"},{"bufferView":1,"byteOffset":3576,"componentType":5126,"count":38,"type":"VEC3"},{"bufferView":1,"byteOffset":4032,"componentType":5126,"count":38,"type":"VEC3"},{"bufferView":1,"byteOffset":4488,"componentType":5126,"count":4,"type":"VEC3"},{"bufferView":1,"byteOffset":4536,"componentType":5126,"count":4,"type":"VEC3"},{"bufferView":1,"byteOffset":4584,"componentType":5126,"count":4,"type":"VEC3"},{"bufferView":1,"byteOffset":4632,"componentType":5126,"count":4,"type":"VEC3"},{"bufferView":1,"byteOffset":4680,"componentType":5126,"count":4,"type":"VEC3"},{"bufferView":1,"byteOffset":4728,"componentType":5126,"count":4,"type":"VEC3"},{"bufferView":1,"byteOffset":4776,"componentType":5126,"count":16,"type":"VEC3"},{"bufferView":1,"byteOffset":4968,"componentType":5126,"count":4,"type":"VEC3"},{"bufferView":1,"byteOffset":5016,"componentType":5126,"count":16,"type":"VEC3"},{"bufferView":1,"byteOffset":5208,"componentType":5126,"count":4,"type":"VEC3"},{"bufferView":1,"byteOffset":5256,"componentType":5126,"count":16,"type":"VEC3"},{"bufferView":1,"byteOffset":5448,"componentType":5126,"count":4,"type":"VEC3"},{"bufferView":1,"byteOffset":5496,"componentType":5126,"count":16,"type":"VEC3"},{"bufferView":1,"byteOffset":5688,"componentType":5126,"count":44,"type":"VEC3"},{"bufferView":1,"byteOffset":6216,"componentType":5126,"count":19,"type":"VEC3"},{"bufferView":1,"byteOffset":6444,"componentType":5126,"count":19,"type":"VEC3"},{"bufferView":1,"byteOffset":6672,"componentType":5126,"count":4,"type":"VEC3"},{"bufferView":1,"byteOffset":6720,"componentType":5126,"count":36,"type":"VEC3"},{"bufferView":1,"byteOffset":7152,"componentType":5126,"count":36,"type":"VEC3"},{"bufferView":1,"byteOffset":7584,"componentType":5126,"count":4,"type":"VEC3"},{"bufferView":1,"byteOffset":7632,"componentType":5126,"count":18,"type":"VEC3"},{"bufferView":1,"byteOffset":7848,"componentType":5126,"count":18,"type":"VEC3"},{"bufferView":2,"byteOffset":0,"componentType":5126,"count":36,"type":"VEC2"},{"bufferView":2,"byteOffset":288,"componentType":5126,"count":4,"type":"VEC2"},{"bufferView":2,"byteOffset":320,"componentType":5126,"count":8,"type":"VEC2"},{"bufferView":2,"byteOffset":384,"componentType":5126,"count":46,"type":"VEC2"},{"bufferView":2,"byteOffset":752,"componentType":5126,"count":4,"type":"VEC2"},{"bufferView":2,"byteOffset":784,"componentType":5126,"count":4,"type":"VEC2"},{"bufferView":2,"byteOffset":816,"componentType":5126,"count":16,"type":"VEC2"},{"bufferView":2,"byteOffset":944,"componentType":5126,"count":4,"type":"VEC2"},{"bufferView":2,"byteOffset":976,"componentType":5126,"count":16,"type":"VEC2"},{"bufferView":2,"byteOffset":1104,"componentType":5126,"count":4,"type":"VEC2"},{"bufferView":2,"byteOffset":1136,"componentType":5126,"count":16,"type":"VEC2"},{"bufferView":2,"byteOffset":1264,"componentType":5126,"count":4,"type":"VEC2"},{"bufferView":2,"byteOffset":1296,"componentType":5126,"count":16,"type":"VEC2"},{"bufferView":2,"byteOffset":1424,"componentType":5126,"count":36,"type":"VEC2"},{"bufferView":2,"byteOffset":1712,"componentType":5126,"count":36,"type":"VEC2"},{"bufferView":2,"byteOffset":2000,"componentType":5126,"count":4,"type":"VEC2"},{"bufferView":2,"byteOffset":2032,"componentType":5126,"count":36,"type":"VEC2"},{"bufferView":2,"byteOffset":2320,"componentType":5126,"count":4,"type":"VEC2"},{"bufferView":2,"byteOffset":2352,"componentType":5126,"count":4,"type":"VEC2"},{"bufferView":2,"byteOffset":2384,"componentType":5126,"count":38,"type":"VEC2"},{"bufferView":2,"byteOffset":2688,"componentType":5126,"count":38,"type":"VEC2"},{"bufferView":2,"byteOffset":2992,"componentType":5126,"count":4,"type":"VEC2"},{"bufferView":2,"byteOffset":3024,"componentType":5126,"count":4,"type":"VEC2"},{"bufferView":2,"byteOffset":3056,"componentType":5126,"count":4,"type":"VEC2"},{"bufferView":2,"byteOffset":3088,"componentType":5126,"count":4,"type":"VEC2"},{"bufferView":2,"byteOffset":3120,"componentType":5126,"count":4,"type":"VEC2"},{"bufferView":2,"byteOffset":3152,"componentType":5126,"count":4,"type":"VEC2"},{"bufferView":2,"byteOffset":3184,"componentType":5126,"count":16,"type":"VEC2"},{"bufferView":2,"byteOffset":3312,"componentType":5126,"count":4,"type":"VEC2"},{"bufferView":2,"byteOffset":3344,"componentType":5126,"count":16,"type":"VEC2"},{"bufferView":2,"byteOffset":3472,"componentType":5126,"count":4,"type":"VEC2"},{"bufferView":2,"byteOffset":3504,"componentType":5126,"count":16,"type":"VEC2"},{"bufferView":2,"byteOffset":3632,"componentType":5126,"count":4,"type":"VEC2"},{"bufferView":2,"byteOffset":3664,"componentType":5126,"count":16,"type":"VEC2"},{"bufferView":2,"byteOffset":3792,"componentType":5126,"count":44,"type":"VEC2"},{"bufferView":2,"byteOffset":4144,"componentType":5126,"count":19,"type":"VEC2"},{"bufferView":2,"byteOffset":4296,"componentType":5126,"count":19,"type":"VEC2"},{"bufferView":2,"byteOffset":4448,"componentType":5126,"count":4,"type":"VEC2"},{"bufferView":2,"byteOffset":4480,"componentType":5126,"count":36,"type":"VEC2"},{"bufferView":2,"byteOffset":4768,"componentType":5126,"count":36,"type":"VEC2"},{"bufferView":2,"byteOffset":5056,"componentType":5126,"count":4,"type":"VEC2"},{"bufferView":2,"byteOffset":5088,"componentType":5126,"count":18,"type":"VEC2"},{"bufferView":2,"byteOffset":5232,"componentType":5126,"count":18,"type":"VEC2"},{"bufferView":3,"byteOffset":0,"componentType":5123,"count":108,"type":"SCALAR"},{"bufferView":3,"byteOffset":216,"componentType":5123,"count":6,"type":"SCALAR"},{"bufferView":3,"byteOffset":228,"componentType":5123,"count":24,"type":"SCALAR"},{"bufferView":3,"byteOffset":276,"componentType":5123,"count":150,"type":"SCALAR"},{"bufferView":3,"byteOffset":576,"componentType":5123,"count":6,"type":"SCALAR"},{"bufferView":3,"byteOffset":588,"componentType":5123,"count":6,"type":"SCALAR"},{"bufferView":3,"byteOffset":600,"componentType":5123,"count":42,"type":"SCALAR"},{"bufferView":3,"byteOffset":684,"componentType":5123,"count":6,"type":"SCALAR"},{"bufferView":3,"byteOffset":696,"componentType":5123,"count":42,"type":"SCALAR"},{"bufferView":3,"byteOffset":780,"componentType":5123,"count":6,"type":"SCALAR"},{"bufferView":3,"byteOffset":792,"componentType":5123,"count":42,"type":"SCALAR"},{"bufferView":3,"byteOffset":876,"componentType":5123,"count":6,"type":"SCALAR"},{"bufferView":3,"byteOffset":888,"componentType":5123,"count":42,"type":"SCALAR"},{"bufferView":3,"byteOffset":972,"componentType":5123,"count":108,"type":"SCALAR"},{"bufferView":3,"byteOffset":1188,"componentType":5123,"count":108,"type":"SCALAR"},{"bufferView":3,"byteOffset":1404,"componentType":5123,"count":6,"type":"SCALAR"},{"bufferView":3,"byteOffset":1416,"componentType":5123,"count":108,"type":"SCALAR"},{"bufferView":3,"byteOffset":1632,"componentType":5123,"count":6,"type":"SCALAR"},{"bufferView":3,"byteOffset":1644,"componentType":5123,"count":6,"type":"SCALAR"},{"bufferView":3,"byteOffset":1656,"componentType":5123,"count":108,"type":"SCALAR"},{"bufferView":3,"byteOffset":1872,"componentType":5123,"count":108,"type":"SCALAR"},{"bufferView":3,"byteOffset":2088,"componentType":5123,"count":6,"type":"SCALAR"},{"bufferView":3,"byteOffset":2100,"componentType":5123,"count":6,"type":"SCALAR"},{"bufferView":3,"byteOffset":2112,"componentType":5123,"count":6,"type":"SCALAR"},{"bufferView":3,"byteOffset":2124,"componentType":5123,"count":6,"type":"SCALAR"},{"bufferView":3,"byteOffset":2136,"componentType":5123,"count":6,"type":"SCALAR"},{"bufferView":3,"byteOffset":2148,"componentType":5123,"count":6,"type":"SCALAR"},{"bufferView":3,"byteOffset":2160,"componentType":5123,"count":42,"type":"SCALAR"},{"bufferView":3,"byteOffset":2244,"componentType":5123,"count":6,"type":"SCALAR"},{"bufferView":3,"byteOffset":2256,"componentType":5123,"count":42,"type":"SCALAR"},{"bufferView":3,"byteOffset":2340,"componentType":5123,"count":6,"type":"SCALAR"},{"bufferView":3,"byteOffset":2352,"componentType":5123,"count":42,"type":"SCALAR"},{"bufferView":3,"byteOffset":2436,"componentType":5123,"count":6,"type":"SCALAR"},{"bufferView":3,"byteOffset":2448,"componentType":5123,"count":42,"type":"SCALAR"},{"bufferView":3,"byteOffset":2532,"componentType":5123,"count":144,"type":"SCALAR"},{"bufferView":3,"byteOffset":2820,"componentType":5123,"count":51,"type":"SCALAR"},{"bufferView":3,"byteOffset":2924,"componentType":5123,"count":51,"type":"SCALAR"},{"bufferView":3,"byteOffset":3028,"componentType":5123,"count":6,"type":"SCALAR"},{"bufferView":3,"byteOffset":3040,"componentType":5123,"count":102,"type":"SCALAR"},{"bufferView":3,"byteOffset":3244,"componentType":5123,"count":102,"type":"SCALAR"},{"bufferView":3,"byteOffset":3448,"componentType":5123,"count":6,"type":"SCALAR"},{"bufferView":3,"byteOffset":3460,"componentType":5123,"count":48,"type":"SCALAR"},{"bufferView":3,"byteOffset":3556,"componentType":5123,"count":48,"type":"SCALAR"}],"asset":{"generator":"Open CASCADE Technology [www.opencascade.com]","version":"2.0"},"bufferViews":[{"buffer":0,"byteLength":8064,"byteOffset":0,"byteStride":12,"target":34962},{"buffer":0,"byteLength":8064,"byteOffset":8064,"byteStride":12,"target":34962},{"buffer":0,"byteLength":5376,"byteOffset":16128,"byteStride":8,"target":34962},{"buffer":0,"byteLength":3652,"byteOffset":21504,"target":34963}],"buffers":[{"byteLength":25156,"uri":"./000.00002.bin"}],"materials":[{"name":"mat_0","pbrMetallicRoughness":{"baseColorFactor":[0.9529411792755127,0.0,0.0,1.0]},"doubleSided":true}],"meshes":[{"name":"Pocket002","primitives":[{"attributes":{"NORMAL":43,"POSITION":0,"TEXCOORD_0":86},"indices":129,"material":0,"mode":4},{"attributes":{"NORMAL":44,"POSITION":1,"TEXCOORD_0":87},"indices":130,"material":0,"mode":4},{"attributes":{"NORMAL":45,"POSITION":2,"TEXCOORD_0":88},"indices":131,"material":0,"mode":4},{"attributes":{"NORMAL":46,"POSITION":3,"TEXCOORD_0":89},"indices":132,"material":0,"mode":4},{"attributes":{"NORMAL":47,"POSITION":4,"TEXCOORD_0":90},"indices":133,"material":0,"mode":4},{"attributes":{"NORMAL":48,"POSITION":5,"TEXCOORD_0":91},"indices":134,"material":0,"mode":4},{"attributes":{"NORMAL":49,"POSITION":6,"TEXCOORD_0":92},"indices":135,"material":0,"mode":4},{"attributes":{"NORMAL":50,"POSITION":7,"TEXCOORD_0":93},"indices":136,"material":0,"mode":4},{"attributes":{"NORMAL":51,"POSITION":8,"TEXCOORD_0":94},"indices":137,"material":0,"mode":4},{"attributes":{"NORMAL":52,"POSITION":9,"TEXCOORD_0":95},"indices":138,"material":0,"mode":4},{"attributes":{"NORMAL":53,"POSITION":10,"TEXCOORD_0":96},"indices":139,"material":0,"mode":4},{"attributes":{"NORMAL":54,"POSITION":11,"TEXCOORD_0":97},"indices":140,"material":0,"mode":4},{"attributes":{"NORMAL":55,"POSITION":12,"TEXCOORD_0":98},"indices":141,"material":0,"mode":4},{"attributes":{"NORMAL":56,"POSITION":13,"TEXCOORD_0":99},"indices":142,"material":0,"mode":4},{"attributes":{"NORMAL":57,"POSITION":14,"TEXCOORD_0":100},"indices":143,"material":0,"mode":4},{"attributes":{"NORMAL":58,"POSITION":15,"TEXCOORD_0":101},"indices":144,"material":0,"mode":4},{"attributes":{"NORMAL":59,"POSITION":16,"TEXCOORD_0":102},"indices":145,"material":0,"mode":4},{"attributes":{"NORMAL":60,"POSITION":17,"TEXCOORD_0":103},"indices":146,"material":0,"mode":4},{"attributes":{"NORMAL":61,"POSITION":18,"TEXCOORD_0":104},"indices":147,"material":0,"mode":4},{"attributes":{"NORMAL":62,"POSITION":19,"TEXCOORD_0":105},"indices":148,"material":0,"mode":4},{"attributes":{"NORMAL":63,"POSITION":20,"TEXCOORD_0":106},"indices":149,"material":0,"mode":4},{"attributes":{"NORMAL":64,"POSITION":21,"TEXCOORD_0":107},"indices":150,"material":0,"mode":4},{"attributes":{"NORMAL":65,"POSITION":22,"TEXCOORD_0":108},"indices":151,"material":0,"mode":4},{"attributes":{"NORMAL":66,"POSITION":23,"TEXCOORD_0":109},"indices":152,"material":0,"mode":4},{"attributes":{"NORMAL":67,"POSITION":24,"TEXCOORD_0":110},"indices":153,"material":0,"mode":4},{"attributes":{"NORMAL":68,"POSITION":25,"TEXCOORD_0":111},"indices":154,"material":0,"mode":4},{"attributes":{"NORMAL":69,"POSITION":26,"TEXCOORD_0":112},"indices":155,"material":0,"mode":4},{"attributes":{"NORMAL":70,"POSITION":27,"TEXCOORD_0":113},"indices":156,"material":0,"mode":4},{"attributes":{"NORMAL":71,"POSITION":28,"TEXCOORD_0":114},"indices":157,"material":0,"mode":4},{"attributes":{"NORMAL":72,"POSITION":29,"TEXCOORD_0":115},"indices":158,"material":0,"mode":4},{"attributes":{"NORMAL":73,"POSITION":30,"TEXCOORD_0":116},"indices":159,"material":0,"mode":4},{"attributes":{"NORMAL":74,"POSITION":31,"TEXCOORD_0":117},"indices":160,"material":0,"mode":4},{"attributes":{"NORMAL":75,"POSITION":32,"TEXCOORD_0":118},"indices":161,"material":0,"mode":4},{"attributes":{"NORMAL":76,"POSITION":33,"TEXCOORD_0":119},"indices":162,"material":0,"mode":4},{"attributes":{"NORMAL":77,"POSITION":34,"TEXCOORD_0":120},"indices":163,"material":0,"mode":4},{"attributes":{"NORMAL":78,"POSITION":35,"TEXCOORD_0":121},"indices":164,"material":0,"mode":4},{"attributes":{"NORMAL":79,"POSITION":36,"TEXCOORD_0":122},"indices":165,"material":0,"mode":4},{"attributes":{"NORMAL":80,"POSITION":37,"TEXCOORD_0":123},"indices":166,"material":0,"mode":4},{"attributes":{"NORMAL":81,"POSITION":38,"TEXCOORD_0":124},"indices":167,"material":0,"mode":4},{"attributes":{"NORMAL":82,"POSITION":39,"TEXCOORD_0":125},"indices":168,"material":0,"mode":4},{"attributes":{"NORMAL":83,"POSITION":40,"TEXCOORD_0":126},"indices":169,"material":0,"mode":4},{"attributes":{"NORMAL":84,"POSITION":41,"TEXCOORD_0":127},"indices":170,"material":0,"mode":4},{"attributes":{"NORMAL":85,"POSITION":42,"TEXCOORD_0":128},"indices":171,"material":0,"mode":4}]}],"nodes":[{"mesh":0,"name":"Pocket002"}],"scene":0,"scenes":[{"nodes":[0]}]}