{"accessors":[{"bufferView":0,"byteOffset":0,"componentType":5126,"count":4,"max":[31.799999999999998,9.6,0.0],"min":[0.0,0.0,0.0],"type":"VEC3"},{"bufferView":0,"byteOffset":48,"componentType":5126,"count":4,"max":[0.0,9.6,0.0],"min":[0.0,0.0,-15.8],"type":"VEC3"},{"bufferView":0,"byteOffset":96,"componentType":5126,"count":4,"max":[31.799999999999998,9.6,0.0],"min":[31.799999999999998,0.0,-15.8],"type":"VEC3"},{"bufferView":0,"byteOffset":144,"componentType":5126,"count":8,"max":[31.799999999999998,0.0,0.0],"min":[0.0,0.0,-15.8],"type":"VEC3"},{"bufferView":0,"byteOffset":240,"componentType":5126,"count":212,"max":[31.799999999999998,9.6,0.0],"min":[0.0,9.599999999999998,-15.8],"type":"VEC3"},{"bufferView":0,"byteOffset":2784,"componentType":5126,"count":4,"max":[31.799999999999998,9.6,-15.8],"min":[0.0,0.0,-15.8],"type":"VEC3"},{"bufferView":0,"byteOffset":2832,"componentType":5126,"count":4,"max":[1.199999999999999,8.6,-1.199999999999999],"min":[1.199999999999999,0.0,-14.600000000000002],"type":"VEC3"},{"bufferView":0,"byteOffset":2880,"componentType":5126,"count":4,"max":[30.6,8.6,-1.199999999999999],"min":[1.199999999999999,0.0,-1.199999999999999],"type":"VEC3"},{"bufferView":0,"byteOffset":2928,"componentType":5126,"count":4,"max":[30.6,8.6,-1.199999999999999],"min":[30.6,0.0,-14.600000000000002],"type":"VEC3"},{"bufferView":0,"byteOffset":2976,"componentType":5126,"count":4,"max":[30.6,8.6,-14.600000000000002],"min":[1.199999999999999,0.0,-14.600000000000002],"type":"VEC3"},{"bufferView":0,"byteOffset":3024,"componentType":5126,"count":54,"max":[6.300000000000001,11.4,-1.5174987021646694],"min":[1.4999999999999996,9.6,-6.28250129783533],"type":"VEC3"},{"bufferView":0,"byteOffset":3672,"componentType":5126,"count":54,"max":[14.3,11.4,-1.5174987021646694],"min":[9.5,9.6,-6.28250129783533],"type":"VEC3"},{"bufferView":0,"byteOffset":4320,"componentType":5126,"count":54,"max":[22.3,11.4,-1.5174987021646694],"min":[17.5,9.6,-6.28250129783533],"type":"VEC3"},{"bufferView":0,"byteOffset":4968,"componentType":5126,"count":54,"max":[30.3,11.4,-1.5174987021646694],"min":[25.5,9.6,-6.28250129783533],"type":"VEC3"},{"bufferView":0,"byteOffset":5616,"componentType":5126,"count":54,"max":[6.300000000000002,11.399999999999999,-9.51749870216467],"min":[1.5000000000000007,9.599999999999998,-14.28250129783533],"type":"VEC3"},{"bufferView":0,"byteOffset":6264,"componentType":5126,"count":54,"max":[14.3,11.399999999999999,-9.51749870216467],"min":[9.5,9.599999999999998,-14.28250129783533],"type":"VEC3"},{"bufferView":0,"byteOffset":6912,"componentType":5126,"count":54,"max":[22.3,11.399999999999999,-9.51749870216467],"min":[17.5,9.599999999999998,-14.28250129783533],"type":"VEC3"},{"bufferView":0,"byteOffset":7560,"componentType":5126,"count":54,"max":[30.3,11.399999999999999,-9.51749870216467],"min":[25.5,9.599999999999998,-14.28250129783533],"type":"VEC3"},{"bufferView":0,"byteOffset":8208,"componentType":5126,"count":4,"max":[30.6,8.6,-1.199999999999999],"min":[1.199999999999999,8.6,-14.600000000000002],"type":"VEC3"},{"bufferView":0,"byteOffset":8256,"componentType":5126,"count":26,"max":[6.300000000000001,11.4,-1.5174987021646694],"min":[1.4999999999999996,11.4,-6.28250129783533],"type":"VEC3"},{"bufferView":0,"byteOffset":8568,"componentType":5126,"count":26,"max":[14.3,11.4,-1.5174987021646694],"min":[9.5,11.4,-6.28250129783533],"type":"VEC3"},{"bufferView":0,"byteOffset":8880,"componentType":5126,"count":26,"max":[22.3,11.4,-1.5174987021646694],"min":[17.5,11.4,-6.28250129783533],"type":"VEC3"},{"bufferView":0,"byteOffset":9192,"componentType":5126,"count":26,"max":[30.3,11.4,-1.5174987021646694],"min":[25.5,11.4,-6.28250129783533],"type":"VEC3"},{"bufferView":0,"byteOffset":9504,"componentType":5126,"count":26,"max":[6.300000000000002,11.399999999999999,-9.51749870216467],"min":[1.5000000000000007,11.399999999999999,-14.28250129783533],"type":"VEC3"},{"bufferView":0,"byteOffset":9816,"componentType":5126,"count":26,"max":[14.3,11.399999999999999,-9.51749870216467],"min":[9.5,11.399999999999999,-14.28250129783533],"type":"VEC3"},{"bufferView":0,"byteOffset":10128,"componentType":5126,"count":26,"max":[22.3,11.399999999999999,-9.51749870216467],"min":[17.5,11.399999999999999,-14.28250129783533],"type":"VEC3"},{"bufferView":0,"byteOffset":10440,"componentType":5126,"count":26,"max":[30.3,11.399999999999999,-9.51749870216467],"min":[25.5,11.399999999999999,-14.28250129783533],"type":"VEC3"},{"bufferView":1,"byteOffset":0,"componentType":5126,"count":4,"type":"VEC3"},{"bufferView":1,"byteOffset":48,"componentType":5126,"count":4,"type":"VEC3"},{"bufferView":1,"byteOffset":96,"componentType":5126,"count":4,"type":"VEC3"},{"bufferView":1,"byteOffset":144,"componentType":5126,"count":8,"type":"VEC3"},{"bufferView":1,"byteOffset":240,"componentType":5126,"count":212,"type":"VEC3"},{"bufferView":1,"byteOffset":2784,"componentType":5126,"count":4,"type":"VEC3"},{"bufferView":1,"byteOffset":2832,"componentType":5126,"count":4,"type":"VEC3"},{"bufferView":1,"byteOffset":2880,"componentType":5126,"count":4,"type":"VEC3"},{"bufferView":1,"byteOffset":2928,"componentType":5126,"count":4,"type":"VEC3"},{"bufferView":1,"byteOffset":2976,"componentType":5126,"count":4,"type":"VEC3"},{"bufferView":1,"byteOffset":3024,"componentType":5126,"count":54,"type":"VEC3"},{"bufferView":1,"byteOffset":3672,"componentType":5126,"count":54,"type":"VEC3"},{"bufferView":1,"byteOffset":4320,"componentType":5126,"count":54,"type":"VEC3"},{"bufferView":1,"byteOffset":4968,"componentType":5126,"count":54,"type":"VEC3"},{"bufferView":1,"byteOffset":5616,"componentType":5126,"count":54,"type":"VEC3"},{"bufferView":1,"byteOffset":6264,"componentType":5126,"count":54,"type":"VEC3"},{"bufferView":1,"byteOffset":6912,"componentType":5126,"count":54,"type":"VEC3"},{"bufferView":1,"byteOffset":7560,"componentType":5126,"count":54,"type":"VEC3"},{"bufferView":1,"byteOffset":8208,"componentType":5126,"count":4,"type":"VEC3"},{"bufferView":1,"byteOffset":8256,"componentType":5126,"count":26,"type":"VEC3"},{"bufferView":1,"byteOffset":8568,"componentType":5126,"count":26,"type":"VEC3"},{"bufferView":1,"byteOffset":8880,"componentType":5126,"count":26,"type":"VEC3"},{"bufferView":1,"byteOffset":9192,"componentType":5126,"count":26,"type":"VEC3"},{"bufferView":1,"byteOffset":9504,"componentType":5126,"count":26,"type":"VEC3"},{"bufferView":1,"byteOffset":9816,"componentType":5126,"count":26,"type":"VEC3"},{"bufferView":1,"byteOffset":10128,"componentType":5126,"count":26,"type":"VEC3"},{"bufferView":1,"byteOffset":10440,"componentType":5126,"count":26,"type":"VEC3"},{"bufferView":2,"byteOffset":0,"componentType":5126,"count":4,"type":"VEC2"},{"bufferView":2,"byteOffset":32,"componentType":5126,"count":4,"type":"VEC2"},{"bufferView":2,"byteOffset":64,"componentType":5126,"count":4,"type":"VEC2"},{"bufferView":2,"byteOffset":96,"componentType":5126,"count":8,"type":"VEC2"},{"bufferView":2,"byteOffset":160,"componentType":5126,"count":212,"type":"VEC2"},{"bufferView":2,"byteOffset":1856,"componentType":5126,"count":4,"type":"VEC2"},{"bufferView":2,"byteOffset":1888,"componentType":5126,"count":4,"type":"VEC2"},{"bufferView":2,"byteOffset":1920,"componentType":5126,"count":4,"type":"VEC2"},{"bufferView":2,"byteOffset":1952,"componentType":5126,"count":4,"type":"VEC2"},{"bufferView":2,"byteOffset":1984,"componentType":5126,"count":4,"type":"VEC2"},{"bufferView":2,"byteOffset":2016,"componentType":5126,"count":54,"type":"VEC2"},{"bufferView":2,"byteOffset":2448,"componentType":5126,"count":54,"type":"VEC2"},{"bufferView":2,"byteOffset":2880,"componentType":5126,"count":54,"type":"VEC2"},{"bufferView":2,"byteOffset":3312,"componentType":5126,"count":54,"type":"VEC2"},{"bufferView":2,"byteOffset":3744,"componentType":5126,"count":54,"type":"VEC2"},{"bufferView":2,"byteOffset":4176,"componentType":5126,"count":54,"type":"VEC2"},{"bufferView":2,"byteOffset":4608,"componentType":5126,"count":54,"type":"VEC2"},{"bufferView":2,"byteOffset":5040,"componentType":5126,"count":54,"type":"VEC2"},{"bufferView":2,"byteOffset":5472,"componentType":5126,"count":4,"type":"VEC2"},{"bufferView":2,"byteOffset":5504,"componentType":5126,"count":26,"type":"VEC2"},{"bufferView":2,"byteOffset":5712,"componentType":5126,"count":26,"type":"VEC2"},{"bufferView":2,"byteOffset":5920,"componentType":5126,"count":26,"type":"VEC2"},{"bufferView":2,"byteOffset":6128,"componentType":5126,"count":26,"type":"VEC2"},{"bufferView":2,"byteOffset":6336,"componentType":5126,"count":26,"type":"VEC2"},{"bufferView":2,"byteOffset":6544,"componentType":5126,"count":26,"type":"VEC2"},{"bufferView":2,"byteOffset":6752,"componentType":5126,"count":26,"type":"VEC2"},{"bufferView":2,"byteOffset":6960,"componentType":5126,"count":26,"type":"VEC2"},{"bufferView":3,"byteOffset":0,"componentType":5123,"count":6,"type":"SCALAR"},{"bufferView":3,"byteOffset":12,"componentType":5123,"count":6,"type":"SCALAR"},{"bufferView":3,"byteOffset":24,"componentType":5123,"count":6,"type":"SCALAR"},{"bufferView":3,"byteOffset":36,"componentType":5123,"count":24,"type":"SCALAR"},{"bufferView":3,"byteOffset":84,"componentType":5123,"count":678,"type":"SCALAR"},{"bufferView":3,"byteOffset":1440,"componentType":5123,"count":6,"type":"SCALAR"},{"bufferView":3,"byteOffset":1452,"componentType":5123,"count":6,"type":"SCALAR"},{"bufferView":3,"byteOffset":1464,"componentType":5123,"count":6,"type":"SCALAR"},{"bufferView":3,"byteOffset":1476,"componentType":5123,"count":6,"type":"SCALAR"},{"bufferView":3,"byteOffset":1488,"componentType":5123,"count":6,"type":"SCALAR"},{"bufferView":3,"byteOffset":1500,"componentType":5123,"count":156,"type":"SCALAR"},{"bufferView":3,"byteOffset":1812,"componentType":5123,"count":156,"type":"SCALAR"},{"bufferView":3,"byteOffset":2124,"componentType":5123,"count":156,"type":"SCALAR"},{"bufferView":3,"byteOffset":2436,"componentType":5123,"count":156,"type":"SCALAR"},{"bufferView":3,"byteOffset":2748,"componentType":5123,"count":156,"type":"SCALAR"},{"bufferView":3,"byteOffset":3060,"componentType":5123,"count":156,"type":"SCALAR"},{"bufferView":3,"byteOffset":3372,"componentType":5123,"count":156,"type":"SCALAR"},{"bufferView":3,"byteOffset":3684,"componentType":5123,"count":156,"type":"SCALAR"},{"bufferView":3,"byteOffset":3996,"componentType":5123,"count":6,"type":"SCALAR"},{"bufferView":3,"byteOffset":4008,"componentType":5123,"count":72,"type":"SCALAR"},{"bufferView":3,"byteOffset":4152,"componentType":5123,"count":72,"type":"SCALAR"},{"bufferView":3,"byteOffset":4296,"componentType":5123,"count":72,"type":"SCALAR"},{"bufferView":3,"byteOffset":4440,"componentType":5123,"count":72,"type":"SCALAR"},{"bufferView":3,"byteOffset":4584,"componentType":5123,"count":72,"type":"SCALAR"},{"bufferView":3,"byteOffset":4728,"componentType":5123,"count":72,"type":"SCALAR"},{"bufferView":3,"byteOffset":4872,"componentType":5123,"count":72,"type":"SCALAR"},{"bufferView":3,"byteOffset":5016,"componentType":5123,"count":72,"type":"SCALAR"}],"asset":{"generator":"Open CASCADE Technology [www.opencascade.com]","version":"2.0"},"bufferViews":[{"buffer":0,"byteLength":10752,"byteOffset":0,"byteStride":12,"target":34962},{"buffer":0,"byteLength":10752,"byteOffset":10752,"byteStride":12,"target":34962},{"buffer":0,"byteLength":7168,"byteOffset":21504,"byteStride":8,"target":34962},{"buffer":0,"byteLength":5160,"byteOffset":28672,"target":34963}],"buffers":[{"byteLength":33832,"uri":"2x4x3.bin"}],"materials":[{"name":"mat_0","pbrMetallicRoughness":{"baseColorFactor":[0.800000011920929,0.800000011920929,0.800000011920929,1.0]},"doubleSided":true}],"meshes":[{"name":"Body001","primitives":[{"attributes":{"NORMAL":27,"POSITION":0,"TEXCOORD_0":54},"indices":81,"material":0,"mode":4},{"attributes":{"NORMAL":28,"POSITION":1,"TEXCOORD_0":55},"indices":82,"material":0,"mode":4},{"attributes":{"NORMAL":29,"POSITION":2,"TEXCOORD_0":56},"indices":83,"material":0,"mode":4},{"attributes":{"NORMAL":30,"POSITION":3,"TEXCOORD_0":57},"indices":84,"material":0,"mode":4},{"attributes":{"NORMAL":31,"POSITION":4,"TEXCOORD_0":58},"indices":85,"material":0,"mode":4},{"attributes":{"NORMAL":32,"POSITION":5,"TEXCOORD_0":59},"indices":86,"material":0,"mode":4},{"attributes":{"NORMAL":33,"POSITION":6,"TEXCOORD_0":60},"indices":87,"material":0,"mode":4},{"attributes":{"NORMAL":34,"POSITION":7,"TEXCOORD_0":61},"indices":88,"material":0,"mode":4},{"attributes":{"NORMAL":35,"POSITION":8,"TEXCOORD_0":62},"indices":89,"material":0,"mode":4},{"attributes":{"NORMAL":36,"POSITION":9,"TEXCOORD_0":63},"indices":90,"material":0,"mode":4},{"attributes":{"NORMAL":37,"POSITION":10,"TEXCOORD_0":64},"indices":91,"material":0,"mode":4},{"attributes":{"NORMAL":38,"POSITION":11,"TEXCOORD_0":65},"indices":92,"material":0,"mode":4},{"attributes":{"NORMAL":39,"POSITION":12,"TEXCOORD_0":66},"indices":93,"material":0,"mode":4},{"attributes":{"NORMAL":40,"POSITION":13,"TEXCOORD_0":67},"indices":94,"material":0,"mode":4},{"attributes":{"NORMAL":41,"POSITION":14,"TEXCOORD_0":68},"indices":95,"material":0,"mode":4},{"attributes":{"NORMAL":42,"POSITION":15,"TEXCOORD_0":69},"indices":96,"material":0,"mode":4},{"attributes":{"NORMAL":43,"POSITION":16,"TEXCOORD_0":70},"indices":97,"material":0,"mode":4},{"attributes":{"NORMAL":44,"POSITION":17,"TEXCOORD_0":71},"indices":98,"material":0,"mode":4},{"attributes":{"NORMAL":45,"POSITION":18,"TEXCOORD_0":72},"indices":99,"material":0,"mode":4},{"attributes":{"NORMAL":46,"POSITION":19,"TEXCOORD_0":73},"indices":100,"material":0,"mode":4},{"attributes":{"NORMAL":47,"POSITION":20,"TEXCOORD_0":74},"indices":101,"material":0,"mode":4},{"attributes":{"NORMAL":48,"POSITION":21,"TEXCOORD_0":75},"indices":102,"material":0,"mode":4},{"attributes":{"NORMAL":49,"POSITION":22,"TEXCOORD_0":76},"indices":103,"material":0,"mode":4},{"attributes":{"NORMAL":50,"POSITION":23,"TEXCOORD_0":77},"indices":104,"material":0,"mode":4},{"attributes":{"NORMAL":51,"POSITION":24,"TEXCOORD_0":78},"indices":105,"material":0,"mode":4},{"attributes":{"NORMAL":52,"POSITION":25,"TEXCOORD_0":79},"indices":106,"material":0,"mode":4},{"attributes":{"NORMAL":53,"POSITION":26,"TEXCOORD_0":80},"indices":107,"material":0,"mode":4}]}],"nodes":[{"mesh":0,"name":"Body001"}],"scene":0,"scenes":[{"nodes":[0]}]}