{"accessors" : [{"bufferView" : 0, "byteOffset" : 0, "componentType" : 5123, "count" : 6, "type" : "SCALAR", "max" : [4], "min" : [0]}, {"bufferView" : 1, "byteOffset" : 0, "componentType" : 5126, "count" : 5, "type" : "VEC3", "max" : [5.837131023406982, 0, 5.837131023406982], "min" : [-5.837131023406982, 0, -5.837131023406982], "name" : "POSITION"}, {"bufferView" : 0, "byteOffset" : 12, "componentType" : 5123, "count" : 36, "type" : "SCALAR", "max" : [28], "min" : [0]}, {"bufferView" : 2, "byteOffset" : 0, "componentType" : 5126, "count" : 29, "type" : "VEC3", "max" : [1, 1.1241250038146973, 2.257822036743164], "min" : [-1, -0.042114000767469406, -2.257822036743164], "name" : "POSITION"}, {"bufferView" : 0, "byteOffset" : 84, "componentType" : 5123, "count" : 288, "type" : "SCALAR", "max" : [218], "min" : [0]}, {"bufferView" : 3, "byteOffset" : 0, "componentType" : 5126, "count" : 219, "type" : "VEC3", "max" : [0.8776829838752747, 1.4129600524902344, 2.175446033477783], "min" : [0.12231700122356415, 0.6560990214347839, 1.4215699434280396], "name" : "POSITION"}, {"bufferView" : 0, "byteOffset" : 660, "componentType" : 5123, "count" : 288, "type" : "SCALAR", "max" : [218], "min" : [0]}, {"bufferView" : 4, "byteOffset" : 0, "componentType" : 5126, "count" : 219, "type" : "VEC3", "max" : [0.8776829838752747, 1.4129600524902344, -1.4245539903640747], "min" : [0.12231700122356415, 0.6560990214347839, -2.1784300804138184], "name" : "POSITION"}, {"bufferView" : 0, "byteOffset" : 1236, "componentType" : 5123, "count" : 288, "type" : "SCALAR", "max" : [218], "min" : [0]}, {"bufferView" : 5, "byteOffset" : 0, "componentType" : 5126, "count" : 219, "type" : "VEC3", "max" : [0.8776829838752747, 1.4129600524902344, -0.22455400228500366], "min" : [0.12231700122356415, 0.6560990214347839, -0.9784299731254578], "name" : "POSITION"}, {"bufferView" : 0, "byteOffset" : 1812, "componentType" : 5123, "count" : 288, "type" : "SCALAR", "max" : [218], "min" : [0]}, {"bufferView" : 6, "byteOffset" : 0, "componentType" : 5126, "count" : 219, "type" : "VEC3", "max" : [0.8776829838752747, 1.4129600524902344, 0.9754459857940674], "min" : [0.12231700122356415, 0.6560990214347839, 0.2215700000524521], "name" : "POSITION"}, {"bufferView" : 0, "byteOffset" : 2388, "componentType" : 5123, "count" : 288, "type" : "SCALAR", "max" : [218], "min" : [0]}, {"bufferView" : 7, "byteOffset" : 0, "componentType" : 5126, "count" : 219, "type" : "VEC3", "max" : [-0.12231700122356415, 1.4129600524902344, 0.9754459857940674], "min" : [-0.8776829838752747, 0.6560990214347839, 0.2215700000524521], "name" : "POSITION"}, {"bufferView" : 0, "byteOffset" : 2964, "componentType" : 5123, "count" : 288, "type" : "SCALAR", "max" : [218], "min" : [0]}, {"bufferView" : 8, "byteOffset" : 0, "componentType" : 5126, "count" : 219, "type" : "VEC3", "max" : [-0.12231700122356415, 1.4129600524902344, 2.175446033477783], "min" : [-0.8776829838752747, 0.6560990214347839, 1.4215699434280396], "name" : "POSITION"}, {"bufferView" : 0, "byteOffset" : 3540, "componentType" : 5123, "count" : 288, "type" : "SCALAR", "max" : [218], "min" : [0]}, {"bufferView" : 9, "byteOffset" : 0, "componentType" : 5126, "count" : 219, "type" : "VEC3", "max" : [-0.12231700122356415, 1.4129600524902344, -0.22455400228500366], "min" : [-0.8776829838752747, 0.6560990214347839, -0.9784299731254578], "name" : "POSITION"}, {"bufferView" : 0, "byteOffset" : 4116, "componentType" : 5123, "count" : 288, "type" : "SCALAR", "max" : [218], "min" : [0]}, {"bufferView" : 10, "byteOffset" : 0, "componentType" : 5126, "count" : 219, "type" : "VEC3", "max" : [-0.12231700122356415, 1.4129600524902344, -1.4245539903640747], "min" : [-0.8776829838752747, 0.6560990214347839, -2.1784300804138184], "name" : "POSITION"}], "asset" : {"generator" : "Aspose.3D 21.12", "version" : "2.0"}, "buffers" : [{"uri" : "data:application/octet-stream;base64,", "byteLength" : 32888}], "bufferViews" : [{"buffer" : 0, "byteOffset" : 0, "byteLength" : 4692, "target" : 34963}, {"buffer" : 0, "byteOffset" : 4696, "byteLength" : 72, "byteStride" : 12, "target" : 34962}, {"buffer" : 0, "byteOffset" : 4772, "byteLength" : 432, "byteStride" : 12, "target" : 34962}, {"buffer" : 0, "byteOffset" : 5208, "byteLength" : 3456, "byteStride" : 12, "target" : 34962}, {"buffer" : 0, "byteOffset" : 8668, "byteLength" : 3456, "byteStride" : 12, "target" : 34962}, {"buffer" : 0, "byteOffset" : 12128, "byteLength" : 3456, "byteStride" : 12, "target" : 34962}, {"buffer" : 0, "byteOffset" : 15588, "byteLength" : 3456, "byteStride" : 12, "target" : 34962}, {"buffer" : 0, "byteOffset" : 19048, "byteLength" : 3456, "byteStride" : 12, "target" : 34962}, {"buffer" : 0, "byteOffset" : 22508, "byteLength" : 3456, "byteStride" : 12, "target" : 34962}, {"buffer" : 0, "byteOffset" : 25968, "byteLength" : 3456, "byteStride" : 12, "target" : 34962}, {"buffer" : 0, "byteOffset" : 29428, "byteLength" : 3456, "byteStride" : 12, "target" : 34962}], "meshes" : [{"primitives" : [{"attributes" : {"POSITION" : 1}, "indices" : 0, "mode" : 4}], "name" : ""}, {"primitives" : [{"attributes" : {"POSITION" : 3}, "indices" : 2, "mode" : 4}], "name" : ""}, {"primitives" : [{"attributes" : {"POSITION" : 5}, "indices" : 4, "mode" : 4}], "name" : ""}, {"primitives" : [{"attributes" : {"POSITION" : 7}, "indices" : 6, "mode" : 4}], "name" : ""}, {"primitives" : [{"attributes" : {"POSITION" : 9}, "indices" : 8, "mode" : 4}], "name" : ""}, {"primitives" : [{"attributes" : {"POSITION" : 11}, "indices" : 10, "mode" : 4}], "name" : ""}, {"primitives" : [{"attributes" : {"POSITION" : 13}, "indices" : 12, "mode" : 4}], "name" : ""}, {"primitives" : [{"attributes" : {"POSITION" : 15}, "indices" : 14, "mode" : 4}], "name" : ""}, {"primitives" : [{"attributes" : {"POSITION" : 17}, "indices" : 16, "mode" : 4}], "name" : ""}, {"primitives" : [{"attributes" : {"POSITION" : 19}, "indices" : 18, "mode" : 4}], "name" : ""}], "nodes" : [{"mesh" : 0, "name" : "Plane"}, {"mesh" : 1, "name" : "Cube_Cube.001"}, {"mesh" : 2, "name" : "Cylinder.000_Cylinder.007"}, {"mesh" : 3, "name" : "Cylinder.001_Cylinder.005"}, {"mesh" : 4, "name" : "Cylinder.002_Cylinder.006"}, {"mesh" : 5, "name" : "Cylinder.003_Cylinder.009"}, {"mesh" : 6, "name" : "Cylinder.004_Cylinder.010"}, {"mesh" : 7, "name" : "Cylinder.005_Cylinder.011"}, {"mesh" : 8, "name" : "Cylinder.006_Cylinder.012"}, {"mesh" : 9, "name" : "Cylinder.007_Cylinder.013"}], "scene" : 0, "scenes" : [{"nodes" : [1, 2, 3, 4, 5, 6, 7, 8, 9]}]}